<?xml version="1.0" encoding="utf-8" standalone="no"?>
<!DOCTYPE svg PUBLIC "-//W3C//DTD SVG 1.1//EN"
  "http://www.w3.org/Graphics/SVG/1.1/DTD/svg11.dtd">
<svg xmlns:xlink="http://www.w3.org/1999/xlink" width="532.8pt" height="349.2pt" viewBox="0 0 532.8 349.2" xmlns="http://www.w3.org/2000/svg" version="1.1">
 <metadata>
  <rdf:RDF xmlns:dc="http://purl.org/dc/elements/1.1/" xmlns:cc="http://creativecommons.org/ns#" xmlns:rdf="http://www.w3.org/1999/02/22-rdf-syntax-ns#">
   <cc:Work>
    <dc:type rdf:resource="http://purl.org/dc/dcmitype/StillImage"/>
    <dc:date>2026-06-04T20:05:15.379313</dc:date>
    <dc:format>image/svg+xml</dc:format>
    <dc:creator>
     <cc:Agent>
      <dc:title>Matplotlib v3.10.9, https://matplotlib.org/</dc:title>
     </cc:Agent>
    </dc:creator>
   </cc:Work>
  </rdf:RDF>
 </metadata>
 <defs>
  <style type="text/css">*{stroke-linejoin: round; stroke-linecap: butt}</style>
 </defs>
 <g id="figure_1">
  <g id="patch_1">
   <path d="M 0 349.2 
L 532.8 349.2 
L 532.8 0 
L 0 0 
z
" style="fill: #ffffff"/>
  </g>
  <g id="axes_1">
   <g id="patch_2">
    <path d="M 38.304 86.53923 
C 39.262932 86.53923 40.182718 86.293175 40.860785 85.855257 
C 41.538852 85.417339 41.91984 84.82331 41.91984 84.204 
C 41.91984 83.58469 41.538852 82.990661 40.860785 82.552743 
C 40.182718 82.114825 39.262932 81.86877 38.304 81.86877 
C 37.345068 81.86877 36.425282 82.114825 35.747215 82.552743 
C 35.069148 82.990661 34.68816 83.58469 34.68816 84.204 
C 34.68816 84.82331 35.069148 85.417339 35.747215 85.855257 
C 36.425282 86.293175 37.345068 86.53923 38.304 86.53923 
z
" clip-path="url(#p0ee01c117d)" style="fill: #ffffff; stroke: #2b3037; stroke-width: 0.8; stroke-linejoin: miter"/>
   </g>
   <g id="patch_3">
    <path d="M 76.87296 61.63011 
C 77.831892 61.63011 78.751678 61.384055 79.429745 60.946137 
C 80.107812 60.508219 80.4888 59.91419 80.4888 59.29488 
C 80.4888 58.67557 80.107812 58.081541 79.429745 57.643623 
C 78.751678 57.205705 77.831892 56.95965 76.87296 56.95965 
C 75.914028 56.95965 74.994242 57.205705 74.316175 57.643623 
C 73.638108 58.081541 73.25712 58.67557 73.25712 59.29488 
C 73.25712 59.91419 73.638108 60.508219 74.316175 60.946137 
C 74.994242 61.384055 75.914028 61.63011 76.87296 61.63011 
z
" clip-path="url(#p0ee01c117d)" style="fill: #ffffff; stroke: #2b3037; stroke-width: 0.8; stroke-linejoin: miter"/>
   </g>
   <g id="patch_4">
    <path d="M 115.44192 77.19831 
C 116.400852 77.19831 117.320638 76.952255 117.998705 76.514337 
C 118.676772 76.076419 119.05776 75.48239 119.05776 74.86308 
C 119.05776 74.24377 118.676772 73.649741 117.998705 73.211823 
C 117.320638 72.773905 116.400852 72.52785 115.44192 72.52785 
C 114.482988 72.52785 113.563202 72.773905 112.885135 73.211823 
C 112.207068 73.649741 111.82608 74.24377 111.82608 74.86308 
C 111.82608 75.48239 112.207068 76.076419 112.885135 76.514337 
C 113.563202 76.952255 114.482988 77.19831 115.44192 77.19831 
z
" clip-path="url(#p0ee01c117d)" style="fill: #ffffff; stroke: #2b3037; stroke-width: 0.8; stroke-linejoin: miter"/>
   </g>
   <g id="patch_5">
    <path d="M 67.23072 105.22107 
C 68.189652 105.22107 69.109438 104.975015 69.787505 104.537097 
C 70.465572 104.099179 70.84656 103.50515 70.84656 102.88584 
C 70.84656 102.26653 70.465572 101.672501 69.787505 101.234583 
C 69.109438 100.796665 68.189652 100.55061 67.23072 100.55061 
C 66.271788 100.55061 65.352002 100.796665 64.673935 101.234583 
C 63.995868 101.672501 63.61488 102.26653 63.61488 102.88584 
C 63.61488 103.50515 63.995868 104.099179 64.673935 104.537097 
C 65.352002 104.975015 66.271788 105.22107 67.23072 105.22107 
z
" clip-path="url(#p0ee01c117d)" style="fill: #ffffff; stroke: #2b3037; stroke-width: 0.8; stroke-linejoin: miter"/>
   </g>
   <g id="patch_6">
    <path d="M 125.08416 111.44835 
C 126.043092 111.44835 126.962878 111.202295 127.640945 110.764377 
C 128.319012 110.326459 128.7 109.73243 128.7 109.11312 
C 128.7 108.49381 128.319012 107.899781 127.640945 107.461863 
C 126.962878 107.023945 126.043092 106.77789 125.08416 106.77789 
C 124.125228 106.77789 123.205442 107.023945 122.527375 107.461863 
C 121.849308 107.899781 121.46832 108.49381 121.46832 109.11312 
C 121.46832 109.73243 121.849308 110.326459 122.527375 110.764377 
C 123.205442 111.202295 124.125228 111.44835 125.08416 111.44835 
z
" clip-path="url(#p0ee01c117d)" style="fill: #ffffff; stroke: #2b3037; stroke-width: 0.8; stroke-linejoin: miter"/>
   </g>
   <g id="patch_7">
    <path d="M 158.832 80.31195 
C 159.790932 80.31195 160.710718 80.065895 161.388785 79.627977 
C 162.066852 79.190059 162.44784 78.59603 162.44784 77.97672 
C 162.44784 77.35741 162.066852 76.763381 161.388785 76.325463 
C 160.710718 75.887545 159.790932 75.64149 158.832 75.64149 
C 157.873068 75.64149 156.953282 75.887545 156.275215 76.325463 
C 155.597148 76.763381 155.21616 77.35741 155.21616 77.97672 
C 155.21616 78.59603 155.597148 79.190059 156.275215 79.627977 
C 156.953282 80.065895 157.873068 80.31195 158.832 80.31195 
z
" clip-path="url(#p0ee01c117d)" style="fill: #ffffff; stroke: #2b3037; stroke-width: 0.8; stroke-linejoin: miter"/>
   </g>
   <g id="patch_8">
    <path d="M 173.29536 117.67563 
C 174.254292 117.67563 175.174078 117.429575 175.852145 116.991657 
C 176.530212 116.553739 176.9112 115.95971 176.9112 115.3404 
C 176.9112 114.72109 176.530212 114.127061 175.852145 113.689143 
C 175.174078 113.251225 174.254292 113.00517 173.29536 113.00517 
C 172.336428 113.00517 171.416642 113.251225 170.738575 113.689143 
C 170.060508 114.127061 169.67952 114.72109 169.67952 115.3404 
C 169.67952 115.95971 170.060508 116.553739 170.738575 116.991657 
C 171.416642 117.429575 172.336428 117.67563 173.29536 117.67563 
z
" clip-path="url(#p0ee01c117d)" style="fill: #ffffff; stroke: #2b3037; stroke-width: 0.8; stroke-linejoin: miter"/>
   </g>
   <g id="patch_9">
    <path d="M 96.15744 130.13019 
C 97.116372 130.13019 98.036158 129.884135 98.714225 129.446217 
C 99.392292 129.008299 99.77328 128.41427 99.77328 127.79496 
C 99.77328 127.17565 99.392292 126.581621 98.714225 126.143703 
C 98.036158 125.705785 97.116372 125.45973 96.15744 125.45973 
C 95.198508 125.45973 94.278722 125.705785 93.600655 126.143703 
C 92.922588 126.581621 92.5416 127.17565 92.5416 127.79496 
C 92.5416 128.41427 92.922588 129.008299 93.600655 129.446217 
C 94.278722 129.884135 95.198508 130.13019 96.15744 130.13019 
z
" clip-path="url(#p0ee01c117d)" style="fill: #ffffff; stroke: #2b3037; stroke-width: 0.8; stroke-linejoin: miter"/>
   </g>
   <g id="patch_10">
    <path d="M 35.712 150.4944 
L 165.312 150.4944 
Q 174.6432 150.4944 174.6432 144.468 
L 174.6432 117.684 
Q 174.6432 111.6576 165.312 111.6576 
L 35.712 111.6576 
Q 26.3808 111.6576 26.3808 117.684 
L 26.3808 144.468 
Q 26.3808 150.4944 35.712 150.4944 
z
" style="fill: #ffffff; stroke: #2f3542; stroke-width: 0.9; stroke-linejoin: miter"/>
   </g>
   <g id="patch_11">
    <path d="M 35.712 197.3664 
L 165.312 197.3664 
Q 174.6432 197.3664 174.6432 191.34 
L 174.6432 164.556 
Q 174.6432 158.5296 165.312 158.5296 
L 35.712 158.5296 
Q 26.3808 158.5296 26.3808 164.556 
L 26.3808 191.34 
Q 26.3808 197.3664 35.712 197.3664 
z
" style="fill: #a9c4df; stroke: #2f3542; stroke-width: 0.9; stroke-linejoin: miter"/>
   </g>
   <g id="patch_12">
    <path d="M 100.512 146.464049 
Q 100.512 154.509578 100.512 161.325271 
" style="fill: none; stroke: #4a5568; stroke-width: 1.1; stroke-linecap: round"/>
    <path d="M 102.312 157.725271 
L 100.512 161.325271 
L 98.712 157.725271 
z
" style="fill: #4a5568; stroke: #4a5568; stroke-width: 1.1; stroke-linecap: round"/>
   </g>
   <g id="patch_13">
    <path d="M 196.416 110.3184 
L 328.608 110.3184 
Q 337.9392 110.3184 337.9392 104.292 
L 337.9392 82.53 
Q 337.9392 76.5036 328.608 76.5036 
L 196.416 76.5036 
Q 187.0848 76.5036 187.0848 82.53 
L 187.0848 104.292 
Q 187.0848 110.3184 196.416 110.3184 
z
" style="fill: #ffffff; stroke: #2f3542; stroke-width: 0.9; stroke-linejoin: miter"/>
   </g>
   <g id="patch_14">
    <path d="M 262.512 107.632644 
Q 262.512 109.147835 262.512 109.7686 
" style="fill: none; stroke: #6a7280; stroke-width: 0.8; stroke-linecap: round"/>
    <path d="M 264.312 106.1686 
L 262.512 109.7686 
L 260.712 106.1686 
z
" style="fill: #6a7280; stroke: #6a7280; stroke-width: 0.8; stroke-linecap: round"/>
   </g>
   <g id="patch_15">
    <path d="M 196.416 141.12 
L 328.608 141.12 
Q 337.9392 141.12 337.9392 135.0936 
L 337.9392 113.3316 
Q 337.9392 107.3052 328.608 107.3052 
L 196.416 107.3052 
Q 187.0848 107.3052 187.0848 113.3316 
L 187.0848 135.0936 
Q 187.0848 141.12 196.416 141.12 
z
" style="fill: #a9c4df; stroke: #2f3542; stroke-width: 0.9; stroke-linejoin: miter"/>
   </g>
   <g id="patch_16">
    <path d="M 262.512 138.434244 
Q 262.512 139.949435 262.512 140.5702 
" style="fill: none; stroke: #6a7280; stroke-width: 0.8; stroke-linecap: round"/>
    <path d="M 264.312 136.9702 
L 262.512 140.5702 
L 260.712 136.9702 
z
" style="fill: #6a7280; stroke: #6a7280; stroke-width: 0.8; stroke-linecap: round"/>
   </g>
   <g id="patch_17">
    <path d="M 196.416 171.9216 
L 328.608 171.9216 
Q 337.9392 171.9216 337.9392 165.8952 
L 337.9392 144.1332 
Q 337.9392 138.1068 328.608 138.1068 
L 196.416 138.1068 
Q 187.0848 138.1068 187.0848 144.1332 
L 187.0848 165.8952 
Q 187.0848 171.9216 196.416 171.9216 
z
" style="fill: #cfdbc0; stroke: #2f3542; stroke-width: 0.9; stroke-linejoin: miter"/>
   </g>
   <g id="patch_18">
    <path d="M 262.512 169.235844 
Q 262.512 170.751035 262.512 171.3718 
" style="fill: none; stroke: #6a7280; stroke-width: 0.8; stroke-linecap: round"/>
    <path d="M 264.312 167.7718 
L 262.512 171.3718 
L 260.712 167.7718 
z
" style="fill: #6a7280; stroke: #6a7280; stroke-width: 0.8; stroke-linecap: round"/>
   </g>
   <g id="patch_19">
    <path d="M 196.416 202.7232 
L 328.608 202.7232 
Q 337.9392 202.7232 337.9392 196.6968 
L 337.9392 174.9348 
Q 337.9392 168.9084 328.608 168.9084 
L 196.416 168.9084 
Q 187.0848 168.9084 187.0848 174.9348 
L 187.0848 196.6968 
Q 187.0848 202.7232 196.416 202.7232 
z
" style="fill: #f3f1ec; stroke: #8b949e; stroke-width: 0.9; stroke-linejoin: miter"/>
   </g>
   <g id="patch_20">
    <path d="M 364.896 110.3184 
L 502.272 110.3184 
Q 511.6032 110.3184 511.6032 104.292 
L 511.6032 82.53 
Q 511.6032 76.5036 502.272 76.5036 
L 364.896 76.5036 
Q 355.5648 76.5036 355.5648 82.53 
L 355.5648 104.292 
Q 355.5648 110.3184 364.896 110.3184 
z
" style="fill: #ffffff; stroke: #2f3542; stroke-width: 0.9; stroke-linejoin: miter"/>
   </g>
   <g id="patch_21">
    <path d="M 433.584 107.632644 
Q 433.584 109.147835 433.584 109.7686 
" style="fill: none; stroke: #6a7280; stroke-width: 0.8; stroke-linecap: round"/>
    <path d="M 435.384 106.1686 
L 433.584 109.7686 
L 431.784 106.1686 
z
" style="fill: #6a7280; stroke: #6a7280; stroke-width: 0.8; stroke-linecap: round"/>
   </g>
   <g id="patch_22">
    <path d="M 364.896 141.12 
L 502.272 141.12 
Q 511.6032 141.12 511.6032 135.0936 
L 511.6032 113.3316 
Q 511.6032 107.3052 502.272 107.3052 
L 364.896 107.3052 
Q 355.5648 107.3052 355.5648 113.3316 
L 355.5648 135.0936 
Q 355.5648 141.12 364.896 141.12 
z
" style="fill: #cfdbc0; stroke: #2f3542; stroke-width: 0.9; stroke-linejoin: miter"/>
   </g>
   <g id="patch_23">
    <path d="M 433.584 138.434244 
Q 433.584 139.949435 433.584 140.5702 
" style="fill: none; stroke: #6a7280; stroke-width: 0.8; stroke-linecap: round"/>
    <path d="M 435.384 136.9702 
L 433.584 140.5702 
L 431.784 136.9702 
z
" style="fill: #6a7280; stroke: #6a7280; stroke-width: 0.8; stroke-linecap: round"/>
   </g>
   <g id="patch_24">
    <path d="M 364.896 171.9216 
L 502.272 171.9216 
Q 511.6032 171.9216 511.6032 165.8952 
L 511.6032 144.1332 
Q 511.6032 138.1068 502.272 138.1068 
L 364.896 138.1068 
Q 355.5648 138.1068 355.5648 144.1332 
L 355.5648 165.8952 
Q 355.5648 171.9216 364.896 171.9216 
z
" style="fill: #e9aca5; stroke: #2f3542; stroke-width: 0.9; stroke-linejoin: miter"/>
   </g>
   <g id="patch_25">
    <path d="M 433.584 169.235844 
Q 433.584 170.751035 433.584 171.3718 
" style="fill: none; stroke: #6a7280; stroke-width: 0.8; stroke-linecap: round"/>
    <path d="M 435.384 167.7718 
L 433.584 171.3718 
L 431.784 167.7718 
z
" style="fill: #6a7280; stroke: #6a7280; stroke-width: 0.8; stroke-linecap: round"/>
   </g>
   <g id="patch_26">
    <path d="M 364.896 202.7232 
L 502.272 202.7232 
Q 511.6032 202.7232 511.6032 196.6968 
L 511.6032 174.9348 
Q 511.6032 168.9084 502.272 168.9084 
L 364.896 168.9084 
Q 355.5648 168.9084 355.5648 174.9348 
L 355.5648 196.6968 
Q 355.5648 202.7232 364.896 202.7232 
z
" style="fill: #fff2cc; stroke: #b58b00; stroke-width: 0.9; stroke-linejoin: miter"/>
   </g>
   <g id="patch_27">
    <path d="M 35.712 312.8724 
L 497.088 312.8724 
Q 506.4192 312.8724 506.4192 306.846 
L 506.4192 263.322 
Q 506.4192 257.2956 497.088 257.2956 
L 35.712 257.2956 
Q 26.3808 257.2956 26.3808 263.322 
L 26.3808 306.846 
Q 26.3808 312.8724 35.712 312.8724 
z
" style="fill: #fff2cc; stroke: #b58b00; stroke-width: 0.9; stroke-linejoin: miter"/>
   </g>
   <g id="line2d_1">
    <path d="M 38.304 84.204 
L 76.87296 59.29488 
" clip-path="url(#p0ee01c117d)" style="fill: none; stroke: #2b3037; stroke-width: 1.35; stroke-linecap: round"/>
   </g>
   <g id="line2d_2">
    <path d="M 76.87296 59.29488 
L 115.44192 74.86308 
" clip-path="url(#p0ee01c117d)" style="fill: none; stroke: #2b3037; stroke-width: 1.35; stroke-linecap: round"/>
   </g>
   <g id="line2d_3">
    <path d="M 38.304 84.204 
L 67.23072 102.88584 
" clip-path="url(#p0ee01c117d)" style="fill: none; stroke: #2b3037; stroke-width: 1.35; stroke-linecap: round"/>
   </g>
   <g id="line2d_4">
    <path d="M 67.23072 102.88584 
L 125.08416 109.11312 
" clip-path="url(#p0ee01c117d)" style="fill: none; stroke: #2b3037; stroke-width: 1.35; stroke-linecap: round"/>
   </g>
   <g id="line2d_5">
    <path d="M 115.44192 74.86308 
L 158.832 77.97672 
" clip-path="url(#p0ee01c117d)" style="fill: none; stroke: #2b3037; stroke-width: 1.35; stroke-linecap: round"/>
   </g>
   <g id="line2d_6">
    <path d="M 158.832 77.97672 
L 173.29536 115.3404 
" clip-path="url(#p0ee01c117d)" style="fill: none; stroke: #2b3037; stroke-width: 1.35; stroke-linecap: round"/>
   </g>
   <g id="line2d_7">
    <path d="M 125.08416 109.11312 
L 173.29536 115.3404 
" clip-path="url(#p0ee01c117d)" style="fill: none; stroke: #2b3037; stroke-width: 1.35; stroke-linecap: round"/>
   </g>
   <g id="line2d_8">
    <path d="M 67.23072 102.88584 
L 96.15744 127.79496 
" clip-path="url(#p0ee01c117d)" style="fill: none; stroke: #2b3037; stroke-width: 1.35; stroke-linecap: round"/>
   </g>
   <g id="line2d_9">
    <path d="M 96.15744 127.79496 
L 125.08416 109.11312 
" clip-path="url(#p0ee01c117d)" style="fill: none; stroke: #2b3037; stroke-width: 1.35; stroke-linecap: round"/>
   </g>
   <g id="line2d_10">
    <path d="M 76.87296 59.29488 
L 67.23072 102.88584 
" clip-path="url(#p0ee01c117d)" style="fill: none; stroke: #2b3037; stroke-width: 1.35; stroke-linecap: round"/>
   </g>
   <g id="text_1">
    <text style="font-weight: 700; font-size: 10.5px; font-family: 'Arial', 'Helvetica', 'DejaVu Sans', sans-serif; text-anchor: start" x="27.936" y="29.781703" transform="rotate(-0 27.936 29.781703)">a</text>
   </g>
   <g id="text_2">
    <text style="font-weight: 700; font-size: 9.5px; font-family: 'Arial', 'Helvetica', 'DejaVu Sans', sans-serif; text-anchor: start" x="43.488" y="29.181703" transform="rotate(-0 43.488 29.181703)">Object and baseline</text>
   </g>
   <g id="text_3">
    <text style="font-weight: 700; font-size: 6.55px; font-family: 'Arial', 'Helvetica', 'DejaVu Sans', sans-serif; fill: #20242a" transform="translate(67.391516 129.339815)">Observed road graph</text>
    <text style="font-weight: 700; font-size: 6.55px; font-family: 'Arial', 'Helvetica', 'DejaVu Sans', sans-serif; fill: #20242a" transform="translate(52.287625 136.20181)">finite, embedded, nearly planar</text>
   </g>
   <g id="text_4">
    <text style="font-size: 6.35px; font-family: 'Arial', 'Helvetica', 'DejaVu Sans', sans-serif; fill: #20242a" transform="translate(78.982027 175.600187)">CEBH baseline</text>
    <!-- $p_c=\langle k\rangle/(\langle k^2\rangle-\langle k\rangle)$ -->
    <g style="fill: #20242a" transform="translate(71.14325 183.507524)">
     <text>
      <tspan x="0" y="-0.585938" style="font-style: oblique; font-size: 6.35px; font-family: 'DejaVu Sans'; fill: #20242a">p</tspan>
      <tspan x="16.97688" y="-0.585938" style="font-style: oblique; font-size: 6.35px; font-family: 'DejaVu Sans'; fill: #20242a">k</tspan>
      <tspan x="30.277844" y="-0.585938" style="font-style: oblique; font-size: 6.35px; font-family: 'DejaVu Sans'; fill: #20242a">k</tspan>
      <tspan x="50.220006" y="-0.585938" style="font-style: oblique; font-size: 6.35px; font-family: 'DejaVu Sans'; fill: #20242a">k</tspan>
      <tspan x="4.046631" y="0.398438" style="font-style: oblique; font-size: 4.445px; font-family: 'DejaVu Sans'; fill: #20242a">c</tspan>
      <tspan x="7.906201" y="-0.585938" style="font-size: 6.35px; font-family: 'DejaVu Sans'; fill: #20242a">=</tspan>
      <tspan x="14.489758" y="-0.585938" style="font-size: 6.35px; font-family: 'DejaVu Sans'; fill: #20242a">⟨</tspan>
      <tspan x="20.668652" y="-0.585938" style="font-size: 6.35px; font-family: 'DejaVu Sans'; fill: #20242a">⟩</tspan>
      <tspan x="23.155774" y="-0.585938" style="font-size: 6.35px; font-family: 'DejaVu Sans'; fill: #20242a">/</tspan>
      <tspan x="25.303601" y="-0.585938" style="font-size: 6.35px; font-family: 'DejaVu Sans'; fill: #20242a">(</tspan>
      <tspan x="27.790723" y="-0.585938" style="font-size: 6.35px; font-family: 'DejaVu Sans'; fill: #20242a">⟨</tspan>
      <tspan x="37.420201" y="-0.585938" style="font-size: 6.35px; font-family: 'DejaVu Sans'; fill: #20242a">⟩</tspan>
      <tspan x="41.149327" y="-0.585938" style="font-size: 6.35px; font-family: 'DejaVu Sans'; fill: #20242a">−</tspan>
      <tspan x="47.732885" y="-0.585938" style="font-size: 6.35px; font-family: 'DejaVu Sans'; fill: #20242a">⟨</tspan>
      <tspan x="53.911779" y="-0.585938" style="font-size: 6.35px; font-family: 'DejaVu Sans'; fill: #20242a">⟩</tspan>
      <tspan x="56.3989" y="-0.585938" style="font-size: 6.35px; font-family: 'DejaVu Sans'; fill: #20242a">)</tspan>
      <tspan x="34.41696" y="-2.882812" style="font-size: 4.445px; font-family: 'DejaVu Sans'; fill: #20242a">2</tspan>
     </text>
    </g>
   </g>
   <g id="text_5">
    <text style="font-size: 6.55px; font-family: 'Arial', 'Helvetica', 'DejaVu Sans', sans-serif; fill: #3d4652" transform="translate(35.712 217.790367)">Question: which constraints move</text>
    <text style="font-size: 6.55px; font-family: 'Arial', 'Helvetica', 'DejaVu Sans', sans-serif; fill: #3d4652" transform="translate(35.712 224.71822)">null thresholds toward roads?</text>
   </g>
   <g id="text_6">
    <text style="font-weight: 700; font-size: 10.5px; font-family: 'Arial', 'Helvetica', 'DejaVu Sans', sans-serif; text-anchor: start" x="193.824" y="29.781703" transform="rotate(-0 193.824 29.781703)">b</text>
   </g>
   <g id="text_7">
    <text style="font-weight: 700; font-size: 8.2px; font-family: 'Arial', 'Helvetica', 'DejaVu Sans', sans-serif; fill: #15191f" transform="translate(196.416 66.434686)">Formal null ladder</text>
    <text style="font-weight: 700; font-size: 8.2px; font-family: 'Arial', 'Helvetica', 'DejaVu Sans', sans-serif; fill: #15191f" transform="translate(196.416 74.215781)">8 method-coherent cities</text>
   </g>
   <g id="text_8">
    <text style="font-weight: 700; font-size: 6.25px; font-family: 'Arial', 'Helvetica', 'DejaVu Sans', sans-serif; fill: #20242a" transform="translate(240.456824 91.790395)">Observed road</text>
    <text style="font-weight: 700; font-size: 6.25px; font-family: 'Arial', 'Helvetica', 'DejaVu Sans', sans-serif; fill: #20242a" transform="translate(239.238563 98.189809)">8-city gap 0.210</text>
   </g>
   <g id="text_9">
    <text style="font-size: 6.25px; font-family: 'Arial', 'Helvetica', 'DejaVu Sans', sans-serif; fill: #20242a" transform="translate(246.531043 122.55447)">Degree null</text>
    <text style="font-size: 6.25px; font-family: 'Arial', 'Helvetica', 'DejaVu Sans', sans-serif; fill: #20242a" transform="translate(218.038855 129.102175)">residual 0.026; 12.7% explained</text>
   </g>
   <g id="text_10">
    <text style="font-size: 6.25px; font-family: 'Arial', 'Helvetica', 'DejaVu Sans', sans-serif; fill: #20242a" transform="translate(238.889441 153.427286)">Spatial-scale null</text>
    <text style="font-size: 6.25px; font-family: 'Arial', 'Helvetica', 'DejaVu Sans', sans-serif; fill: #20242a" transform="translate(224.466102 159.835489)">gap 0.069; remaining 0.140</text>
   </g>
   <g id="text_11">
    <text style="font-size: 6.25px; font-family: 'Arial', 'Helvetica', 'DejaVu Sans', sans-serif; fill: #20242a" transform="translate(234.374793 184.201469)">Post-spatial residual</text>
    <text style="font-size: 6.25px; font-family: 'Arial', 'Helvetica', 'DejaVu Sans', sans-serif; fill: #20242a" transform="translate(220.821082 190.588334)">embedded-organization target</text>
   </g>
   <g id="text_12">
    <text style="font-weight: 700; font-size: 10.5px; font-family: 'Arial', 'Helvetica', 'DejaVu Sans', sans-serif; text-anchor: start" x="354.528" y="29.781703" transform="rotate(-0 354.528 29.781703)">c</text>
   </g>
   <g id="text_13">
    <text style="font-weight: 700; font-size: 8.2px; font-family: 'Arial', 'Helvetica', 'DejaVu Sans', sans-serif; fill: #15191f" transform="translate(364.896 66.327061)">Full-city geometry screen</text>
    <text style="font-weight: 700; font-size: 8.2px; font-family: 'Arial', 'Helvetica', 'DejaVu Sans', sans-serif; fill: #15191f" transform="translate(364.896 74.215781)">71 standardized windows</text>
   </g>
   <g id="text_14">
    <text style="font-weight: 700; font-size: 6.25px; font-family: 'Arial', 'Helvetica', 'DejaVu Sans', sans-serif; fill: #20242a" transform="translate(411.528824 91.790395)">Observed road</text>
    <text style="font-weight: 700; font-size: 6.25px; font-family: 'Arial', 'Helvetica', 'DejaVu Sans', sans-serif; fill: #20242a" transform="translate(402.50148 98.189809)">71-window gap 0.217</text>
   </g>
   <g id="text_15">
    <text style="font-size: 6.25px; font-family: 'Arial', 'Helvetica', 'DejaVu Sans', sans-serif; fill: #20242a" transform="translate(409.961441 122.672976)">Spatial-scale null</text>
    <text style="font-size: 6.25px; font-family: 'Arial', 'Helvetica', 'DejaVu Sans', sans-serif; fill: #20242a" transform="translate(403.531266 129.059841)">mean residual 0.0965</text>
   </g>
   <g id="text_16">
    <text style="font-weight: 700; font-size: 6.25px; font-family: 'Arial', 'Helvetica', 'DejaVu Sans', sans-serif; fill: #20242a" transform="translate(404.239762 153.390665)">Strict geometry null</text>
    <text style="font-weight: 700; font-size: 6.25px; font-family: 'Arial', 'Helvetica', 'DejaVu Sans', sans-serif; fill: #20242a" transform="translate(368.812027 159.87211)">residual 0.0014; near-zero at grid resolution</text>
   </g>
   <g id="text_17">
    <text style="font-size: 6.25px; font-family: 'Arial', 'Helvetica', 'DejaVu Sans', sans-serif; fill: #20242a" transform="translate(420.207535 184.121049)">Boundary</text>
    <text style="font-size: 6.25px; font-family: 'Arial', 'Helvetica', 'DejaVu Sans', sans-serif; fill: #20242a" transform="translate(385.989273 190.668754)">0.005 swaps/edge; one record/city</text>
   </g>
   <g id="text_18">
    <text style="font-size: 6.45px; font-family: 'Arial', 'Helvetica', 'DejaVu Sans', sans-serif; fill: #20242a" transform="translate(97.542023 280.001602)">Allowed claim: a model-conditional null ladder separates degree, edge-scale and strict embedded-geometry baselines.</text>
    <text style="font-size: 6.45px; font-family: 'Arial', 'Helvetica', 'DejaVu Sans', sans-serif; fill: #20242a" transform="translate(138.846715 286.758833)">The full-city low-intensity layer tests coverage; the higher-intensity subset tests sensitivity.</text>
    <text style="font-size: 6.45px; font-family: 'Arial', 'Helvetica', 'DejaVu Sans', sans-serif; fill: #20242a" transform="translate(104.361891 293.425664)">Forbidden overclaim: not a universal planar theorem, causal urban-design rule or high-intensity all-city planar null.</text>
   </g>
   <g id="text_19">
    <text style="font-size: 5.8px; font-family: 'Arial', 'Helvetica', 'DejaVu Sans', sans-serif; text-anchor: start; fill: #687386" x="35.712" y="323.586" transform="rotate(-0 35.712 323.586)">Evidence domains are separated: full-city low-intensity coverage is not a planar-percolation proof.</text>
   </g>
  </g>
 </g>
 <defs>
  <clipPath id="p0ee01c117d">
   <rect x="7.2" y="7.2" width="518.4" height="334.8"/>
  </clipPath>
 </defs>
</svg>
